<svg width="120" height="44" viewBox="0 0 120 44" fill="none" xmlns="http://www.w3.org/2000/svg">
  <g clip-path="url(#clip0_133_10193)">
    <path d="M61.4762 15.8459L63.9341 8.21216H66.5812L62.7997 19.9564H60.1527L57.6947 12.3226L55.2197 19.9564H52.5726L48.7913 8.21216H51.4383L53.8962 15.8459L56.3713 8.21216H59.0184L61.4762 15.8459Z" fill="white" />
    <path d="M70.6199 13.2118C69.7776 13.2118 68.6261 13.2957 68.6261 14.4701H66.512C66.512 12.1715 68.0933 11.3159 70.6544 11.3159C73.5936 11.3159 75.0374 12.1213 75.0374 15.007V19.9563H72.6997V18.8322C72.356 19.6544 71.5653 20.208 69.7433 20.208C67.6635 20.208 66.0306 19.6544 66.0306 17.5404C66.0306 15.8124 67.4057 15.1581 69.6401 14.9399L72.6996 14.6714V14.6379C72.6997 13.346 71.4793 13.2118 70.6199 13.2118ZM70.0871 16.517C69.1245 16.6009 68.4714 16.8357 68.4714 17.5068C68.4714 18.0437 69.0043 18.3121 70.1214 18.3121C71.823 18.3121 72.631 17.6578 72.6997 17.1041V16.2653L70.0871 16.517Z" fill="white" />
    <path d="M76.584 19.9564V7.37329H78.9387V19.9564H76.584Z" fill="white" />
    <path d="M80.6575 19.9564V7.37329H83.0122V19.9564H80.6575Z" fill="white" />
    <path d="M88.8046 13.2118C87.9623 13.2118 86.8108 13.2957 86.8108 14.4701H84.6967C84.6967 12.1715 86.278 11.3159 88.8391 11.3159C91.7782 11.3159 93.2221 12.1213 93.2221 15.007V19.9563H90.8844V18.8322C90.5407 19.6544 89.75 20.208 87.928 20.208C85.8482 20.208 84.2153 19.6544 84.2153 17.5404C84.2153 15.8124 85.5904 15.1581 87.8248 14.9399L90.8843 14.6714V14.6379C90.8844 13.346 89.664 13.2118 88.8046 13.2118ZM88.2718 16.517C87.3092 16.6009 86.6561 16.8357 86.6561 17.5068C86.6561 18.0437 87.189 18.3121 88.3061 18.3121C90.0077 18.3121 90.8157 17.6578 90.8844 17.1041V16.2653L88.2718 16.517Z" fill="white" />
    <path d="M103.329 14.9231H101.214C101.214 14.0507 100.458 13.4467 99.1346 13.4467C97.7768 13.4467 96.8657 14.0507 96.8657 15.7452C96.8657 17.5068 97.8798 18.0773 99.2722 18.0773C100.647 18.0773 101.3 17.4733 101.3 16.6009H103.415C103.415 18.6141 102.057 20.2081 99.1862 20.2081C96.0924 20.2081 94.425 18.6813 94.425 15.7621C94.425 12.8093 95.8517 11.316 99.1519 11.316C101.868 11.3159 103.329 12.9098 103.329 14.9231Z" fill="white" />
    <path d="M113.332 16.4331H106.749C106.938 17.8256 107.78 18.3121 109.104 18.3121C110.272 18.3121 111.097 17.7585 111.097 17.1041H113.229C113.229 18.9497 111.768 20.2079 109.086 20.2079C105.855 20.2079 104.274 18.6812 104.274 15.762C104.274 12.9098 105.872 11.3159 108.777 11.3159C112.026 11.3159 113.332 12.9098 113.332 16.0975L113.332 16.4331ZM111.011 14.8057C110.822 13.7151 110.015 13.2118 108.897 13.2118C107.918 13.2118 107.127 13.7487 106.835 14.8057H111.011Z" fill="white" />
    <path d="M49.9945 24.6307H59.4996V26.8118H52.4524V29.4123H58.8121V31.5933H52.4524V36.3749H49.9945V24.6307Z" fill="white" />
    <path d="M68.8152 32.8517H62.2321C62.4213 34.2442 63.2635 34.7308 64.587 34.7308C65.7557 34.7308 66.5808 34.1771 66.5808 33.5228H68.7122C68.7122 35.3683 67.2513 36.6266 64.5699 36.6266C61.3384 36.6266 59.7571 35.0998 59.7571 32.1806C59.7571 29.3284 61.3556 27.7346 64.2604 27.7346C67.509 27.7346 68.8152 29.3285 68.8152 32.5162V32.8517ZM66.4948 31.2243C66.3058 30.1337 65.4979 29.6303 64.3807 29.6303C63.401 29.6303 62.6104 30.1673 62.3181 31.2243H66.4948Z" fill="white" />
    <path d="M70.1899 36.3751V27.9863H72.5447V29.1103C73.0776 28.2379 73.9026 27.7346 75.0026 27.7346C77.0137 27.7346 78.1824 28.8754 78.1824 31.3753H76.0683C76.0683 30.4861 75.5011 29.8652 74.4526 29.8652C73.2494 29.8652 72.5447 30.6538 72.5447 32.1806V36.375H70.1899V36.3751Z" fill="white" />
    <path d="M79.3853 36.3751V27.9863H81.74V29.1103C82.2729 28.2379 83.0979 27.7346 84.1979 27.7346C86.209 27.7346 87.3777 28.8754 87.3777 31.3753H85.2636C85.2636 30.4861 84.6964 29.8652 83.648 29.8652C82.4447 29.8652 81.74 30.6538 81.74 32.1806V36.375H79.3853V36.3751Z" fill="white" />
    <path d="M96.8654 32.8517H90.2823C90.4714 34.2442 91.3136 34.7308 92.6372 34.7308C93.8059 34.7308 94.631 34.1771 94.631 33.5228H96.7623C96.7623 35.3683 95.3014 36.6266 92.62 36.6266C89.3885 36.6266 87.8073 35.0998 87.8073 32.1806C87.8073 29.3284 89.4058 27.7346 92.3106 27.7346C95.5592 27.7346 96.8654 29.3285 96.8654 32.5162V32.8517ZM94.545 31.2243C94.356 30.1337 93.5481 29.6303 92.4309 29.6303C91.4512 29.6303 90.6606 30.1673 90.3683 31.2243H94.545Z" fill="white" />
    <path d="M99.409 24.0436C100.423 24.0436 100.853 24.4965 100.853 25.4361C100.853 26.3757 100.423 26.8286 99.409 26.8286C98.4121 26.8286 97.9824 26.3756 97.9824 25.4361C97.9823 24.4965 98.412 24.0436 99.409 24.0436ZM98.2402 27.9863H100.595V36.375H98.2402V27.9863Z" fill="white" />
    <path d="M102.314 36.3751V27.9863H104.668V29.1103C105.201 28.2379 106.026 27.7346 107.126 27.7346C109.137 27.7346 110.306 28.8754 110.306 31.3753H108.192C108.192 30.4861 107.625 29.8652 106.576 29.8652C105.373 29.8652 104.668 30.6538 104.668 32.1806V36.375H102.314V36.3751Z" fill="white" />
    <path d="M115.583 29.6304C114.74 29.6304 113.589 29.7143 113.589 30.8888H111.475C111.475 28.5903 113.056 27.7346 115.617 27.7346C118.556 27.7346 120 28.5399 120 31.4257V36.3751H117.662V35.251C117.319 36.0731 116.528 36.6267 114.706 36.6267C112.626 36.6267 110.993 36.0731 110.993 33.9591C110.993 32.231 112.368 31.5768 114.603 31.3586L117.662 31.0902V31.0566C117.662 29.7648 116.442 29.6304 115.583 29.6304ZM115.05 32.9357C114.087 33.0196 113.434 33.2544 113.434 33.9255C113.434 34.4624 113.967 34.7308 115.084 34.7308C116.786 34.7308 117.594 34.0766 117.662 33.5228V32.684L115.05 32.9357Z" fill="white" />
    <path d="M37.9083 9.0972L34.3088 7.06769L19.8747 40.5693C19.655 40.5346 19.4815 40.4773 19.3802 40.4202L13.0204 36.8363L32.7675 6.19829L31.18 5.30458L6.68122 33.2638L4.36869 31.9609C3.93735 31.719 3.48072 30.9463 3.48072 30.4592V28.5715L29.7835 4.51716L22.897 0.637358C22.1687 0.226009 21.2354 0 20.268 0C19.3016 0 18.3679 0.226009 17.6398 0.637358L2.62871 9.0972C1.13019 9.94092 0 11.8502 0 13.5402V30.4593C0 32.149 1.13019 34.0599 2.62871 34.9029L17.6398 43.3643C18.3679 43.774 19.3016 44 20.268 44C21.2354 44 22.1686 43.774 22.8969 43.3643L37.9082 34.9029C39.4077 34.0599 40.5374 32.149 40.5374 30.4593V13.5402C40.5374 11.8502 39.4077 9.94092 37.9083 9.0972ZM3.48072 13.5402C3.48072 13.0537 3.93735 12.2818 4.36869 12.0382L19.3802 3.57977C19.5352 3.49112 19.8511 3.39754 20.2681 3.39754C20.6862 3.39754 21.0019 3.49112 21.1574 3.57977L24.8707 5.67143L3.48072 20.1996V13.5402ZM37.0567 30.4592C37.0567 30.9463 36.5997 31.719 36.1683 31.9609L28.3484 36.3668L34.989 11.3743L36.1682 12.0381C36.5995 12.2818 37.0566 13.0537 37.0566 13.5402V30.4592H37.0567Z" fill="#8EFB9D" />
  </g>
  <defs>
    <clipPath id="clip0_133_10193">
      <rect width="120" height="44" fill="white" />
    </clipPath>
  </defs>
</svg>
