<svg width="179" height="66" viewBox="0 0 179 66" fill="none" xmlns="http://www.w3.org/2000/svg">
  <path d="M91.702 23.7689L95.3684 12.3182H99.3169L93.6762 29.9346H89.7277L86.0613 18.484L82.3693 29.9346H78.4208L72.7803 12.3182H76.7288L80.3952 23.7689L84.0872 12.3182H88.0357L91.702 23.7689Z" fill="white" />
  <path d="M105.341 19.8178C104.085 19.8178 102.367 19.9437 102.367 21.7052H99.2136C99.2136 18.2574 101.572 16.974 105.393 16.974C109.777 16.974 111.931 18.182 111.931 22.5106V29.9346H108.444V28.2485C107.931 29.4817 106.751 30.3122 104.034 30.3122C100.931 30.3122 98.4956 29.4817 98.4956 26.3108C98.4956 23.7188 100.547 22.7372 103.88 22.41L108.443 22.0072V21.9569C108.444 20.0191 106.623 19.8178 105.341 19.8178ZM104.546 24.7756C103.111 24.9014 102.136 25.2537 102.136 26.2603C102.136 27.0657 102.931 27.4683 104.598 27.4683C107.136 27.4683 108.341 26.4868 108.444 25.6563V24.398L104.546 24.7756Z" fill="white" />
  <path d="M114.238 29.9346V11.0599H117.75V29.9346H114.238Z" fill="white" />
  <path d="M120.314 29.9346V11.0599H123.827V29.9346H120.314Z" fill="white" />
  <path d="M132.467 19.8178C131.211 19.8178 129.493 19.9437 129.493 21.7052H126.339C126.339 18.2574 128.698 16.974 132.518 16.974C136.903 16.974 139.056 18.182 139.056 22.5106V29.9346H135.569V28.2485C135.057 29.4817 133.877 30.3122 131.159 30.3122C128.057 30.3122 125.621 29.4817 125.621 26.3108C125.621 23.7188 127.672 22.7372 131.005 22.41L135.569 22.0072V21.9569C135.569 20.0191 133.749 19.8178 132.467 19.8178ZM131.672 24.7756C130.236 24.9014 129.262 25.2537 129.262 26.2603C129.262 27.0657 130.057 27.4683 131.723 27.4683C134.262 27.4683 135.467 26.4868 135.569 25.6563V24.398L131.672 24.7756Z" fill="white" />
  <path d="M154.132 22.3848H150.978C150.978 21.0761 149.85 20.1701 147.876 20.1701C145.85 20.1701 144.491 21.0761 144.491 23.6179C144.491 26.2603 146.004 27.116 148.081 27.116C150.132 27.116 151.106 26.21 151.106 24.9014H154.26C154.26 27.9213 152.234 30.3122 147.953 30.3122C143.338 30.3122 140.851 28.022 140.851 23.6432C140.851 19.214 142.979 16.9741 147.901 16.9741C151.952 16.974 154.132 19.3648 154.132 22.3848Z" fill="white" />
  <path d="M169.053 24.6497H159.233C159.515 26.7385 160.772 27.4683 162.746 27.4683C164.489 27.4683 165.72 26.6379 165.72 25.6563H168.899C168.899 28.4246 166.72 30.312 162.72 30.312C157.9 30.312 155.541 28.0219 155.541 23.6431C155.541 19.3648 157.926 16.974 162.259 16.974C167.105 16.974 169.053 19.3648 169.053 24.1463L169.053 24.6497ZM165.592 22.2086C165.31 20.5728 164.105 19.8178 162.438 19.8178C160.977 19.8178 159.798 20.6232 159.362 22.2086H165.592Z" fill="white" />
  <path d="M74.5752 36.9462H88.7537V40.2177H78.2416V44.1185H87.7282V47.3901H78.2416V54.5624H74.5752V36.9462Z" fill="white" />
  <path d="M102.649 49.2775H92.8297C93.1118 51.3663 94.368 52.0961 96.3423 52.0961C98.0857 52.0961 99.3164 51.2657 99.3164 50.2841H102.496C102.496 53.0524 100.317 54.9398 96.3167 54.9398C91.4965 54.9398 89.1377 52.6497 89.1377 48.2709C89.1377 43.9926 91.5221 41.6019 95.8552 41.6019C100.701 41.6019 102.649 43.9927 102.649 48.7743V49.2775ZM99.1882 46.8364C98.9062 45.2006 97.7011 44.4455 96.0346 44.4455C94.5732 44.4455 93.3939 45.2509 92.9579 46.8364H99.1882Z" fill="white" />
  <path d="M104.7 54.5625V41.9793H108.212V43.6654C109.007 42.3567 110.238 41.6018 111.879 41.6018C114.879 41.6018 116.622 43.313 116.622 47.0628H113.468C113.468 45.7291 112.622 44.7977 111.058 44.7977C109.264 44.7977 108.212 45.9806 108.212 48.2708V54.5623H104.7V54.5625Z" fill="white" />
  <path d="M118.417 54.5625V41.9793H121.929V43.6654C122.724 42.3567 123.955 41.6018 125.595 41.6018C128.595 41.6018 130.339 43.313 130.339 47.0628H127.185C127.185 45.7291 126.339 44.7977 124.775 44.7977C122.98 44.7977 121.929 45.9806 121.929 48.2708V54.5623H118.417V54.5625Z" fill="white" />
  <path d="M144.491 49.2775H134.671C134.953 51.3663 136.21 52.0961 138.184 52.0961C139.927 52.0961 141.158 51.2657 141.158 50.2841H144.337C144.337 53.0524 142.158 54.9398 138.158 54.9398C133.338 54.9398 130.979 52.6497 130.979 48.2709C130.979 43.9926 133.364 41.6019 137.697 41.6019C142.543 41.6019 144.491 43.9927 144.491 48.7743V49.2775ZM141.03 46.8364C140.748 45.2006 139.543 44.4455 137.876 44.4455C136.415 44.4455 135.235 45.2509 134.799 46.8364H141.03Z" fill="white" />
  <path d="M148.285 36.0653C149.798 36.0653 150.439 36.7447 150.439 38.1541C150.439 39.5635 149.798 40.2429 148.285 40.2429C146.798 40.2429 146.157 39.5633 146.157 38.1541C146.157 36.7447 146.798 36.0653 148.285 36.0653ZM146.541 41.9793H150.054V54.5624H146.541V41.9793Z" fill="white" />
  <path d="M152.618 54.5625V41.9793H156.13V43.6654C156.925 42.3567 158.156 41.6018 159.797 41.6018C162.797 41.6018 164.54 43.313 164.54 47.0628H161.386C161.386 45.7291 160.54 44.7977 158.976 44.7977C157.182 44.7977 156.13 45.9806 156.13 48.2708V54.5623H152.618V54.5625Z" fill="white" />
  <path d="M172.411 44.4455C171.154 44.4455 169.437 44.5714 169.437 46.3331H166.283C166.283 42.8853 168.642 41.6018 172.462 41.6018C176.846 41.6018 179 42.8097 179 47.1384V54.5625H175.513V52.8764C175 54.1095 173.821 54.94 171.103 54.94C168.001 54.94 165.565 54.1095 165.565 50.9386C165.565 48.3464 167.616 47.365 170.949 47.0378L175.513 46.6352V46.5847C175.513 44.647 173.693 44.4455 172.411 44.4455ZM171.616 49.4034C170.18 49.5292 169.206 49.8815 169.206 50.8881C169.206 51.6935 170.001 52.0961 171.667 52.0961C174.205 52.0961 175.41 51.1147 175.513 50.2841V49.0258L171.616 49.4034Z" fill="white" />
  <path d="M56.5465 13.6458L51.1774 10.6015L29.6465 60.8539C29.3187 60.8018 29.0599 60.716 28.9088 60.6303L19.4221 55.2544L48.8782 9.29744L46.5101 7.95688L9.96615 49.8957L6.51663 47.9414C5.87321 47.5785 5.19208 46.4195 5.19208 45.6888V42.8573L44.4271 6.77574L34.1546 0.956037C33.0683 0.339013 31.6762 0 30.2331 0C28.7916 0 27.3988 0.339013 26.3128 0.956037L3.92115 13.6458C1.68586 14.9114 0 17.7752 0 20.3104V45.6889C0 48.2235 1.68586 51.0899 3.92115 52.3543L26.3128 65.0464C27.3988 65.661 28.7916 66 30.2331 66C31.6762 66 33.0682 65.661 34.1545 65.0464L56.5464 52.3543C58.7832 51.0899 60.4682 48.2235 60.4682 45.6889V20.3104C60.4682 17.7752 58.7832 14.9114 56.5465 13.6458ZM5.19208 20.3104C5.19208 19.5805 5.87321 18.4227 6.51663 18.0572L28.9088 5.36965C29.1399 5.23668 29.6113 5.0963 30.2332 5.0963C30.8569 5.0963 31.3279 5.23668 31.5597 5.36965L37.0989 8.50714L5.19208 30.2994V20.3104ZM55.2763 45.6888C55.2763 46.4195 54.5946 47.5785 53.951 47.9414L42.2863 54.5502L52.192 17.0614L53.9509 18.0571C54.5943 18.4227 55.2762 19.5805 55.2762 20.3102V45.6888H55.2763Z" fill="#8EFB9D" />
</svg>
