<?xml version="1.0" encoding="utf-8" ?><svg xmlns="http://www.w3.org/2000/svg" xmlns:xlink="http://www.w3.org/1999/xlink" width="3185.08" height="3185.08" viewBox="485.474 389.255 3185.08 3185.08"><path fill="#5CD66E" d="M595.89 1080.06C588.046 1079.43 590.133 1081.08 585.474 1077.29C586.794 1073.55 585.693 1074.42 588.834 1072.82C606.419 1063.83 1026.29 1065.22 1070.35 1067.63C1084.07 1068.38 1099.27 1070.23 1112.24 1074.91C1134.23 1082.84 1150.03 1128.28 1158.62 1148.16C1174.9 1185.85 1190.3 1224.09 1207.04 1261.54C1221.08 1292.95 1237.06 1324.34 1249.72 1356.25C1252.17 1362.44 1254.56 1368.14 1254.39 1374.9C1251.74 1378.48 1252.78 1377.89 1249.28 1380.17C1274.1 1443.37 1309.73 1515.97 1337.76 1579.08L1502.77 1950.91C1531.92 2016.44 1564.46 2085.6 1591.85 2151.38C1634.79 2065.02 1676.8 1969.41 1717.65 1881.33L1942.37 1398.98L2020.52 1231.93C2029.59 1212.59 2067.58 1125.74 2079.79 1118.72C2093.28 1122.97 2261.62 1500.79 2284 1545.58C2284.37 1548.44 2285.21 1553.18 2283.89 1555.93C2271.01 1582.65 2257.43 1609.03 2244.66 1635.82L2108.83 1917.58C2102.98 1929.75 2080.69 1968.15 2078.31 1977.81L1778.29 2633.37L1704.98 2794.17C1695.59 2814.62 1668.58 2877.22 1655.79 2891.72C1630.23 2901.7 1455.61 2895.36 1416.5 2896.14C1409.75 2896.28 1398.05 2893.1 1391.45 2890.34C1382.53 2881.35 1377.72 2869.73 1372.51 2858.32L808.944 1594.81L661.343 1261.26C644.48 1224.29 627.937 1187.17 611.717 1149.9C604.768 1134.04 591.073 1104.84 587.665 1089.25C589.323 1082.86 588.778 1084.9 595.89 1080.06Z"/><path fill="#5CD66E" d="M2567.57 2148.87C2589.84 2090.43 2625.98 2015.54 2651.94 1957.12L2808.53 1604.19L2955.36 1272.56C2979.36 1218.19 3002.52 1163.42 3027.23 1109.38C3039.16 1083.28 3055.09 1079.82 3081.67 1079.66C3181.12 1079.09 3280.61 1079.4 3380.08 1079.44L3498.62 1079.49C3518.33 1079.52 3551.47 1078.85 3570.55 1081.08C3539.68 1159.94 3497.03 1250.79 3462.51 1329.17L3226.47 1860.08L2941.64 2500.21L2837.05 2735.66C2817.03 2780.85 2797.98 2826.86 2776.57 2871.4C2772.38 2880.13 2767.74 2889.05 2758.61 2893.44C2753.12 2896.08 2747.09 2896.59 2741.1 2896.96C2716.49 2898.49 2517.72 2897.92 2508.1 2894.26C2500.44 2891.35 2495.05 2881.7 2491.19 2874.97C2474.34 2845.51 2461.61 2811.94 2447.62 2780.92L2365.78 2600.86C2365.7 2573.56 2546.99 2208.49 2567.57 2148.87Z"/><path fill="#43B35B" d="M2284 1545.58L2347.66 1684.6C2356.93 1704.63 2370.19 1731.05 2378.28 1751.08C2394.38 1785.04 2556.78 2143.4 2563.76 2148.42L2567.57 2148.87C2546.99 2208.49 2365.7 2573.56 2365.78 2600.86C2302.67 2457.78 2235.01 2313.67 2170.67 2170.69C2149.39 2123.21 2127.79 2075.88 2105.85 2028.71C2101.3 2018.82 2086.89 1982.77 2079.94 1977.81L2078.31 1977.81C2080.69 1968.15 2102.98 1929.75 2108.83 1917.58L2244.66 1635.82C2257.43 1609.03 2271.01 1582.65 2283.89 1555.93C2285.21 1553.18 2284.37 1548.44 2284 1545.58Z"/></svg>